<?xml version="1.0" encoding="UTF-8" standalone="no"?>
<svg width="20px" height="14px" viewBox="0 0 20 14" version="1.1" xmlns="http://www.w3.org/2000/svg" xmlns:xlink="http://www.w3.org/1999/xlink">
    <defs></defs>
    <g id="Symbols" stroke="none" stroke-width="1" fill="none" fill-rule="evenodd">
        <g id="Atoms-/-blizz-next-button" transform="translate(-15.000000, -15.000000)" fill="#00AEFF" fill-rule="nonzero">
            <g id="blizz-next">
                <g id="blizzard-logo_icon-small" transform="translate(15.000000, 15.000000)">
                    <path d="M19.8325937,11.0719737 C19.8325937,11.2690789 19.9366317,11.3100658 19.9485082,11.4348684 L19.9485082,12.4834868 L19.9290307,12.4954605 C19.8960458,12.5170682 19.8643262,12.5404376 19.8340188,12.5654605 C19.8356798,12.5767475 19.8364738,12.5881385 19.8363941,12.5995395 C19.8359532,12.6158784 19.8345256,12.6321782 19.8321186,12.6483553 L19.8259428,12.6856579 L18.0919761,12.6856579 L18.0791495,12.6640132 C18.0575569,12.6290072 18.0337588,12.5953249 18.0078906,12.5631579 L17.4378193,12.50375 C17.315786,12.6284948 17.1657454,12.7243062 16.9993395,12.78375 L16.9922136,12.7860526 L16.9822374,12.7860526 C16.5456578,12.7860526 16.3019523,12.8063158 16.051121,12.8058553 C15.9342564,12.8275 15.6211922,13.01125 15.3798621,13.0140132 L15.3599096,13.0140132 L15.347083,13.0001974 C15.2701357,12.9226469 15.2282482,12.8185629 15.2306934,12.7109868 C15.2306934,12.6290132 15.2487457,12.5585526 15.2482706,12.5221711 L15.2482706,12.0768421 L15.2677481,12.0639474 C15.3075618,12.0427897 15.3432534,12.0150475 15.3732112,11.9819737 C15.398321,11.9435651 15.4101368,11.8983929 15.4069405,11.8530263 C15.4042061,11.7772725 15.3906159,11.7022555 15.3665604,11.6301316 L15.355634,11.5992763 L15.3827124,11.5808553 C15.4886507,11.5076316 15.5504084,11.4813816 15.5988644,11.3860526 C15.6180791,11.3405107 15.6271451,11.2915455 15.6254678,11.2423684 C15.6239804,11.1687752 15.6141025,11.0955671 15.5960141,11.0240789 L15.5879381,10.9936842 L15.6135913,10.9771053 C15.6531504,10.9561639 15.688671,10.9287414 15.7185794,10.8960526 C15.7407144,10.8602902 15.7511493,10.8188642 15.7485082,10.7772368 C15.7461949,10.7079478 15.7340459,10.6392981 15.7124036,10.5732237 L15.7100283,10.5653947 L15.7100283,10.5584868 C15.7171542,10.4963158 15.795064,10.3834868 15.826893,10.2748026 C15.8557667,10.1654673 15.869191,10.0528374 15.8667979,9.94 C15.8646136,9.78297056 15.8508014,9.6262958 15.8254678,9.47118421 C15.8254678,9.36296053 15.7618098,9.33993421 15.7124036,9.21467105 C15.6259428,8.9775 15.5988644,8.68782895 15.5988644,8.40782895 C15.6028433,8.0404878 15.6411632,7.67425244 15.7133538,7.31361842 L16.4026649,5.53598684 C16.3979143,5.51157895 16.3333063,5.49453947 16.2896008,5.40888158 C16.2815968,5.3888874 16.2772561,5.36769184 16.2767742,5.34625 C16.2767742,5.30618421 16.2867504,5.28315789 16.2867504,5.24263158 L16.2867504,5.22467105 L16.3005272,5.21177632 C16.3005272,5.21177632 16.4625224,5.05197368 16.459672,4.88065789 C16.459672,4.82032895 16.459672,4.78578947 16.459672,4.75078947 C16.459672,4.73375 16.459672,4.71625 16.459672,4.69322368 C16.4862754,4.56243421 16.7698858,4.22671053 16.8059903,3.91032895 C16.8106449,3.86441985 16.8127066,3.81829838 16.8121661,3.77217105 C16.8121661,3.67546053 16.8059903,3.58796053 16.8059903,3.58335526 C16.8145414,3.47605263 17.2810497,2.43802632 17.6135913,2.11565789 L17.6135913,1.71914474 L17.6330687,1.70671053 C17.6563466,1.69381579 17.7352065,1.63072368 17.7280806,1.59664474 L17.7280806,1.59388158 C17.7280806,1.56164474 17.7247552,1.58144737 17.6658478,1.51328947 L17.0544464,1.51328947 L17.0425699,1.49164474 C17.0215069,1.45104121 16.9946386,1.41352219 16.9627599,1.38019737 C16.9131314,1.33723618 16.8476462,1.31563241 16.7812873,1.32032895 C16.6302184,1.32032895 16.4663229,1.38940789 16.3888882,1.39263158 C16.3670355,1.38526316 16.2796245,1.45710526 16.2059903,1.62289474 C16.1061643,1.85692933 16.0369023,2.10214106 15.9998146,2.35282895 C15.891501,3.02197368 15.7774868,3.11315789 15.6292682,3.11592105 C15.6055153,3.11592105 15.5850877,3.11315789 15.5675105,3.11592105 C15.5176293,3.11822368 15.48295,3.11822368 15.4183419,3.21539474 L15.3903134,3.26144737 L15.3504084,3.22690789 C15.299577,3.18085526 15.2335438,3.12236842 15.2121661,3.10993421 L15.1827124,3.09059211 L15.195064,3.05835526 C15.2297861,2.97992006 15.2491188,2.89589673 15.2520711,2.81059211 C15.2520711,2.69269737 15.195064,2.63052632 15.1922136,2.49973684 C15.1969642,2.39473684 15.2972017,2.30263158 15.3651352,2.23953947 L15.3651352,0.159342105 L15.4064654,0.156578947 C15.4439951,0.154276316 15.5342564,0.154276316 15.7584844,0.154276316 C16.2059903,0.154276316 17.1836625,0.156578947 19.2981519,0.156578947 L19.3238051,0.156578947 L19.3366317,0.177763158 C19.4069405,0.289671053 19.4102659,0.282302632 19.4145414,0.28 C19.4188169,0.277697368 19.4458953,0.276776316 19.4791495,0.276776316 C19.4880106,0.276304921 19.4968917,0.276304921 19.5057528,0.276776316 L19.5447077,0.281842105 L19.5447077,0.425065789 L19.5347314,0.4375 C19.4321186,0.549868421 19.3922136,0.944078947 19.059672,1.27105263 C19.0693037,1.34066603 19.0742231,1.41081607 19.0743989,1.48105263 C19.0756062,1.54096535 19.0693858,1.60080178 19.0558716,1.65927632 C18.9979143,1.87388158 18.9380568,1.91026316 18.7138288,2.11657895 C18.7252678,2.18603453 18.7311444,2.25624418 18.731406,2.32657895 C18.7326105,2.38713356 18.725258,2.44756299 18.7095533,2.50618421 C18.6292682,2.69868421 18.4881756,2.61164474 18.4800996,2.83269737 C18.4800996,2.83269737 18.4164416,3.25822368 18.3584844,3.52855263 C18.3005272,3.79888158 18.1570592,3.95177632 18.1594345,4.15625 C18.1598355,4.19130082 18.1631719,4.2262622 18.1694108,4.26078947 L18.1318811,5.35638158 L18.1143039,5.36881579 C17.9456578,5.46598684 17.9765367,6.09414474 17.6724987,6.40868421 L17.6724987,6.79092105 L17.6696483,6.79736842 C17.5746364,7.035 17.3988644,7.02118421 17.3266554,7.32697368 L17.3266554,8.57039474 L16.9822374,9.53657895 C16.9855628,9.57296053 16.9964892,9.70973684 16.9964892,9.85894737 C16.9973001,9.94361245 16.9922213,10.0282342 16.9812873,10.1122368 C16.9337813,10.4180263 16.7261804,10.7910526 16.6211922,10.9642105 C16.5945889,11.0051974 16.5822374,11.0273026 16.5703609,11.0448026 C16.5708981,11.0540058 16.5708981,11.063231 16.5703609,11.0724342 C16.5703609,11.1953947 16.4781994,11.4035526 16.4610972,11.4445395 C16.4534963,11.5242105 16.3907884,11.6351974 16.3570592,11.6973684 C16.4007647,11.7397368 16.4135913,11.7549342 16.4463704,11.7540132 C16.4520711,11.7572368 16.483425,11.7259211 16.5228549,11.655 L16.5432825,11.62 L16.5808122,11.6379605 C16.6430227,11.6669641 16.7113114,11.6816225 16.7803371,11.6807895 C16.9086032,11.6807895 17.0444701,11.6347368 17.2150165,11.6347368 C17.2625224,11.6264474 17.2677481,11.5955921 17.2810497,11.5094737 C17.2943514,11.4233553 17.3038526,11.3183553 17.3936388,11.2253289 C17.5670355,11.0480263 17.9508835,11.0102632 18.0340188,10.94625 C18.5014773,10.6317105 18.6948264,10.7781579 19.0012397,10.2950658 L19.0292682,10.2490132 L19.0686982,10.2844737 C19.1068013,10.3183994 19.1420664,10.3552036 19.1741614,10.3945395 L19.7546839,10.3945395 L19.7675105,10.4148026 C19.826893,10.5128947 19.9451827,10.5828947 19.9480331,10.7371711 C19.9276055,10.8559868 19.8359191,10.8173026 19.8325937,11.0719737 Z M15.1095533,9.14651316 L15.0620473,9.15940789 C14.8843751,9.19855263 14.9670355,9.33763158 14.8178668,9.49052632 C14.7969642,9.52230263 14.7817623,9.73736842 14.7831875,9.98375 C14.7831875,10.4820395 14.8221424,11.1567105 14.8230925,11.1580921 L14.8230925,11.2041447 L14.7755865,11.2041447 C14.7280806,11.1981579 14.4088407,11.3220395 14.3518336,11.4256579 L14.3385319,11.4459211 L13.0226174,11.4459211 L13.0093158,11.4256579 C12.9361566,11.3096053 12.9337813,11.3128289 12.9266554,11.3160526 C12.9109785,11.3160526 12.8663229,11.3252632 12.787463,11.3252632 C12.6449452,11.3275658 12.6097908,11.3713158 12.5656103,11.4275 C12.5214298,11.4836842 12.4791495,11.5656579 12.3508835,11.5656579 L12.3466079,11.5656579 C12.3437576,11.5656579 12.0886507,11.5196053 11.9608597,11.3855921 L11.0648977,11.3855921 L11.0520711,11.3653289 C10.9903134,11.2630921 10.9342564,11.2709211 10.9304559,11.1608553 C10.9432825,11.1046711 10.971311,11.0977632 11.0093158,11.05125 C11.0406697,11.0194737 11.0758241,10.9853947 11.1043276,10.9614474 L11.1043276,10.2338158 L11.1228549,10.2213816 C11.2311685,10.1440132 11.2226174,10.1509211 11.2230925,10.1292763 C11.2235675,10.1076316 11.2197671,10.0855263 11.2197671,10.0431579 C11.2176182,10.0387538 11.2160232,10.0341153 11.2150165,10.0293421 C11.2099864,10.0137057 11.2041194,9.99833402 11.1974393,9.98328947 C11.1827124,9.94736842 11.1613348,9.90131579 11.1375818,9.85434211 C11.1055452,9.78116421 11.0619511,9.71326775 11.0083656,9.65309211 L10.971311,9.62776316 L10.9979143,9.59276316 C11.0435296,9.53613958 11.0687287,9.46657571 11.0696483,9.39473684 C11.0669329,9.32313042 11.0413721,9.25410349 10.9964892,9.19717105 L10.987463,9.1875 L10.987463,9.17644737 C10.9786067,9.11681482 10.9743194,9.0566282 10.9746364,8.99638158 C10.9746364,8.64223684 11.1038526,8.22776316 11.1033775,8.01592105 L11.1033775,7.99289474 L11.1033775,7.97032895 L11.1228549,7.95651316 C11.2382944,7.89296053 11.1998146,7.52730263 11.339482,7.24684211 C11.467273,7.00598684 11.7480331,6.69651316 11.7428074,6.70388158 C11.7817623,6.63710526 11.7323561,6.28710526 12.2316435,5.76578947 C12.2572968,5.64236842 12.4658478,4.64532895 12.667273,4.34414474 C12.7166941,4.30038896 12.7692395,4.26006947 12.8245177,4.22348684 C12.8758241,4.18572368 12.9261804,4.14980263 12.9508835,4.13138158 C12.9622849,4.06690789 13.0292682,3.88638158 13.4121661,3.54236842 C13.3767071,3.41433854 13.357719,3.28254868 13.355634,3.15 C13.3525331,3.03430218 13.3752187,2.91931771 13.4221424,2.81289474 L13.426893,2.80230263 L13.4359191,2.79631579 C13.6848502,2.62453947 13.8335438,2.23125 14.2245177,1.87526316 L14.2245177,1.12368421 L12.9570592,1.11171053 C12.7670355,1.28486842 12.2667979,1.30375 12.2634725,1.94480263 L12.2634725,1.98763158 L12.2183419,1.98763158 C12.1294165,2.00032184 12.0444437,2.03176203 11.9694108,2.07973684 C11.8743989,2.13730263 11.7993395,2.21789474 11.8021899,2.27730263 L11.8021899,3.18269737 C11.7974393,3.27111842 11.7285557,3.36690789 11.5646602,3.62802632 L11.5366317,3.67407895 L11.4972017,3.63815789 C11.4135913,3.56493421 11.386988,3.49631579 11.3879381,3.44013158 C11.3879381,3.39730263 11.3979143,3.36644737 11.3974393,3.34342105 C11.3969642,3.32039474 11.3907884,3.28309211 11.3000521,3.21815789 L11.2843751,3.20802632 L11.2815248,3.18914474 C11.2815248,3.18914474 11.2482706,2.95611842 11.219292,2.81105263 C11.2069405,2.72585526 11.2007647,2.64388158 11.1855628,2.64434211 L11.1565842,2.62546053 L11.1684606,2.59414474 C11.2313267,2.42540634 11.2673679,2.24838429 11.275349,2.06914474 C11.275349,1.94434211 11.2477956,1.83105263 11.1803371,1.76381579 C11.1476293,1.73158319 11.111298,1.7030057 11.0720236,1.67861842 L11.0520711,1.66618421 L11.0520711,0.600526316 L11.0610972,0.589473684 C11.0610972,0.589473684 11.1717861,0.442565789 11.1684606,0.340789474 C11.1684606,0.333421053 11.1684606,0.325592105 11.1684606,0.318684211 L11.1618098,0.270328947 L11.2126412,0.270328947 C12.8401946,0.270328947 12.9898383,0.282763158 14.5855628,0.282763158 L14.6297433,0.282763158 L14.6297433,0.899868421 C14.6197671,0.995657895 14.7352065,1.00993421 14.7447077,1.17111842 L14.7447077,3.21493421 L14.7290307,3.22782895 C14.6207172,3.31625 14.5865129,3.46822368 14.5865129,3.61006579 C14.5869661,3.71060917 14.6003716,3.81070404 14.6264179,3.90802632 L14.6359191,3.93703947 L14.6093158,3.955 C14.2729737,4.18157895 14.1014773,5.08743421 13.899577,5.32 L13.899577,5.84592105 L13.8729737,5.85697368 C13.8729737,5.85697368 13.4064654,6.05223684 13.3209547,6.28572368 C13.298751,6.35040696 13.2884596,6.41837274 13.2905509,6.48651316 C13.291819,6.58305956 13.3024758,6.67927494 13.3223799,6.77388158 L13.3304559,6.80934211 L13.2957766,6.82315789 C12.9157291,6.96131579 12.3029025,8.61921053 12.315254,8.71684211 L12.315254,9.01756579 L12.2677481,9.02217105 L12.2924511,9.04427632 C12.2908817,9.04563508 12.2897307,9.04738838 12.2891257,9.04934211 C12.2809222,9.06261041 12.2737756,9.07646646 12.2677481,9.09078947 C12.2496958,9.12855263 12.226893,9.18611842 12.1993395,9.25473684 C12.1456578,9.39289474 12.0772492,9.57986842 12.0050402,9.77282895 C11.8686982,10.1348026 11.7280806,10.5096711 11.6340188,10.6478289 C11.6972017,10.7353289 11.7024274,10.7348684 11.7067029,10.7316447 C11.7181044,10.7316447 11.7542089,10.7247368 11.8107409,10.7247368 C11.9124036,10.7279605 11.9532587,10.6685526 12.3969642,10.45625 C12.4919761,10.4240132 12.6059903,10.4875658 12.9447077,10.3355921 C12.9974393,10.3217763 13.1347314,10.0721711 13.3005272,9.83914474 C13.4634725,9.61532895 13.675349,9.38875 13.9603846,9.36756579 C13.978912,9.24967105 14.051121,9.00835526 14.1717861,8.89460526 L14.2126412,8.85684211 L14.2406697,8.90289474 C14.2588351,8.93422327 14.2793162,8.96423592 14.3019523,8.99269737 C14.6682231,8.82875 14.5052777,8.65421053 14.6962516,8.42947368 L14.7090782,8.41473684 L15.0344939,8.41473684 L15.0344939,8.46078947 C15.0344939,8.46078947 15.0344939,8.50453947 15.0344939,8.57085526 C15.0344939,8.71914474 15.0444701,8.98763158 15.0948264,9.10046053 L15.1095533,9.14651316 Z M5.27582407,9.89671053 C5.27582407,10.0321053 5.35563404,10.3028947 5.35563404,10.5598684 C5.3564343,10.6191323 5.3515038,10.6783385 5.3409072,10.7367105 C5.29672668,10.9669737 5.14708298,11.2893421 5.14280744,11.2980921 C5.14280744,11.2980921 4.90527775,11.6305921 4.81026587,11.8608553 C4.69672668,12.1371711 4.65017086,12.62625 4.65017086,12.62625 L4.65017086,12.6511184 L4.62641789,12.6621711 C4.62641789,12.6621711 4.14708298,12.8767763 3.88390008,13.0665132 C3.64637039,13.2341447 3.4088407,13.3815132 3.35135851,13.5367105 L3.34233238,13.5615789 L3.31667917,13.5648026 C3.31667917,13.5648026 2.75088345,13.6430921 2.58366255,13.7061842 C2.57214116,13.7080408 2.56132727,13.7128058 2.55230863,13.72 C2.52742686,13.7574791 2.48638454,13.7820283 2.44066967,13.7867763 C2.30860317,13.7628289 2.27772431,13.6145395 2.1888882,13.6251316 C2.15468393,13.6251316 2.09910198,13.6449342 2.01881694,13.72 C1.96180982,13.8360526 1.78841314,13.8397368 1.59838939,13.8452632 C1.36400125,13.8403833 1.1302893,13.8189892 0.899101978,13.78125 C0.855335322,13.7980112 0.808303593,13.8052431 0.761334757,13.8024342 C0.636869199,13.8024342 0.476299127,13.7766447 0.385087726,13.7766447 C0.370281598,13.7760456 0.355453998,13.7771275 0.340907203,13.7798684 L0.317154234,13.8208553 L0.276299127,13.7844737 C0.225467773,13.7384211 0.159434519,13.6808553 0.138056847,13.6684211 L0.0644226428,13.6223684 L0.146607916,13.5933553 C0.146607916,13.5933553 0.414066348,13.4920395 0.495776562,13.4160526 C0.495776562,13.4160526 0.495776562,13.4160526 0.495776562,13.4160526 C0.495776562,13.4160526 0.501002215,13.4054605 0.50480269,13.3971711 C0.5128787,13.3782895 0.522854947,13.3511184 0.534256372,13.3188816 C0.555634044,13.2521053 0.58176231,13.1613816 0.608840695,13.0577632 C0.663947583,12.8523684 0.721429769,12.6 0.75895946,12.4130263 C0.75895946,11.7590789 0.799814567,11.4228947 0.799814567,11.0802632 C0.799783279,10.8914003 0.786450614,10.7027599 0.759909579,10.5156579 C0.748983213,10.4359868 0.71240364,9.83223684 0.65872193,9.39519737 C0.65872193,8.68875 0.700052097,7.96342105 0.700052097,7.53559211 C0.700052097,7.45407895 0.700052097,7.38315789 0.694826443,7.32605263 L0.694826443,7.28460526 L0.737106728,7.28092105 C0.799048415,7.27599198 0.852865383,7.23770981 0.876299127,7.18190789 L0.849695802,6.62328947 L0.756584163,6.43861842 L0.768935707,5.62118421 C0.786870977,5.53395497 0.823975055,5.45149332 0.877724306,5.37940789 C0.893789611,5.3238755 0.900053666,5.26610961 0.896251621,5.20855263 C0.896251621,5.10032895 0.886275374,4.98335526 0.882949959,4.94973684 L0.756109104,4.74802632 L0.756109104,1.90657895 L0.775111479,1.89414474 C0.884850196,1.81677632 0.882949959,1.81677632 0.880574662,1.80203947 C0.878199365,1.78730263 0.871548534,1.73710526 0.871548534,1.65697368 C0.871548534,1.57684211 0.876299127,1.53677632 0.876299127,1.52480263 L0.873448771,1.52480263 C0.850368354,1.50430487 0.828928899,1.48213573 0.809315754,1.45848684 C0.785562785,1.45848684 0.748508154,1.46263158 0.710503403,1.46447368 C0.703298614,1.48010194 0.68774645,1.49056673 0.670123355,1.49164474 C0.651248641,1.48914475 0.633733117,1.48073576 0.62024212,1.46769737 L0.616916705,1.46769737 C0.6048082,1.46837631 0.592660795,1.46744664 0.580812192,1.46493421 C0.560174418,1.46053452 0.545639706,1.44258417 0.546132857,1.42210526 C0.547575058,1.40944148 0.553055084,1.39752887 0.561809816,1.38802632 C0.536631669,1.36177632 0.514303878,1.33598684 0.50480269,1.32447368 L0.124755184,0.969868421 C0.10464862,0.929536987 0.0754203165,0.894119303 0.0392444956,0.86625 C0.0135532997,0.85003423 -0.00128859362,0.821784917 0.000289626205,0.792105263 C0.000289626205,0.769539474 0.000289626205,0.737302632 0.000289626205,0.675592105 C0.000289626205,0.569210526 -0.00446096762,0.540197368 0.0245176547,0.499671053 C0.062916241,0.465055429 0.0958858954,0.425181701 0.122379887,0.381315789 L0.136631669,0.359671053 L0.75088345,0.359671053 C0.833543783,0.303486842 1.00979081,0.287368421 1.21169105,0.258355263 C1.42831813,0.232105263 1.65064592,0.216447368 1.7257053,0.216447368 L2.33473143,0.23625 C2.94898321,0.23625 3.17511148,0.178223684 3.49862692,0.177763158 C3.67509205,0.17901598 3.85114778,0.194419393 4.02499271,0.223815789 L4.05397134,0.227960526 L4.06109723,0.255592105 C4.10622787,0.429210526 4.28199984,0.502434211 4.36751053,0.574276316 C4.38970505,0.57127318 4.41208432,0.569734553 4.4344939,0.569671053 C4.54087549,0.568052684 4.64536171,0.597061305 4.73473143,0.653026316 C5.11905447,0.906776316 5.3280806,1.51513158 5.32998084,1.83611842 C5.33188108,2.15710526 5.40504022,2.45690789 5.40551528,2.69592105 C5.40551528,2.83407895 5.37796184,2.96072368 5.29245115,3.04085526 L4.8648977,3.81730263 C4.70480269,4.10927632 4.32380507,4.55414474 4.19458891,4.70289474 C4.22743625,4.75079587 4.27263787,4.78953424 4.3257053,4.81526316 C4.4469393,4.88064745 4.58090825,4.92080067 4.71905447,4.93315789 C4.80793954,4.94434988 4.87294237,5.02000714 4.86822312,5.10677632 C4.86822312,5.25414474 4.74803309,5.41809211 4.73568155,5.43328947 C4.72760786,5.44279674 4.72414625,5.45521289 4.72618036,5.46736842 C4.72761829,5.50327116 4.73787907,5.53832207 4.7561091,5.56960526 C4.76439072,5.58852633 4.77962823,5.60379006 4.79886445,5.61243421 C4.79886445,5.61243421 4.80361504,5.61243421 4.81786682,5.59401316 L4.84637039,5.54796053 L4.88532526,5.58480263 C5.06252241,5.75289474 5.08532526,5.80078947 5.08960079,5.84684211 C5.09292621,5.86203947 5.05777181,5.83256579 5.19696421,5.93664474 L5.22071718,5.95368421 L5.21406635,5.98177632 C5.15484286,6.23251232 5.12299693,6.48859297 5.11905447,6.74578947 C5.11905447,6.93875 5.14280744,7.13309211 5.21121599,7.28322368 C5.24304497,7.37532895 5.43639414,7.42368421 5.45539651,7.56460526 C5.4545646,7.59620296 5.44170451,7.62638544 5.419292,7.64934211 C5.419292,7.68986842 5.419292,7.79717105 5.419292,7.91230263 C5.419292,7.98552632 5.419292,8.06197368 5.419292,8.12690789 C5.419292,8.14210526 5.419292,8.15592105 5.419292,8.17296053 C5.419292,8.52480263 5.48675043,8.86375 5.48675043,9.16861842 C5.48675043,9.40947368 5.44399509,9.63467105 5.28960079,9.82763158 C5.27755155,9.8486595 5.27256952,9.87280759 5.27534901,9.89671053 L5.27582407,9.89671053 Z M3.69625162,2.18796053 C3.692053,2.16677274 3.70215838,2.14533194 3.72142977,2.13453947 L3.88817561,2.02032895 C3.69815186,1.95769737 3.53283119,2.06960526 3.37226112,1.75368421 L3.32000459,1.75368421 L2.80979081,1.82460526 L2.84066967,1.75460526 C2.84608486,1.7426512 2.84930041,1.72987073 2.85017086,1.71684211 C2.83628545,1.72402469 2.82201323,1.7304813 2.80741552,1.73618421 C2.78879829,1.78683123 2.78009819,1.84040242 2.78176231,1.89414474 C2.78176231,1.94526316 2.75135851,1.99453947 2.667273,2.03921053 L2.667273,4.17513158 C2.70522067,4.16254562 2.74498429,4.15586204 2.78508773,4.15532895 L2.78983832,4.15532895 C2.83412935,4.15568143 2.8773643,4.16847908 2.91430388,4.19217105 C3.14375756,4.12539474 3.04684545,3.58059211 3.70100222,3.50414474 C3.70100222,3.44796053 3.6976768,3.35723684 3.6976768,3.255 C3.70575281,3.00355263 3.6976768,2.695 3.81026587,2.57388158 C3.78033713,2.49651316 3.69862692,2.27407895 3.69625162,2.18796053 Z M3.7912635,9.79769737 C3.79411385,9.72309211 3.8344939,9.65631579 3.83164355,9.60842105 C3.83211507,9.57514731 3.81266494,9.54461999 3.78176231,9.53013158 L3.72523024,9.49605263 L3.77891195,9.45875 C3.80901295,9.43902275 3.82559412,9.40493191 3.82214236,9.36986842 C3.82641789,9.23861842 3.67059841,9.00651316 3.667273,8.78776316 C3.6640293,8.67950888 3.7152252,8.57647142 3.80456516,8.51144737 C3.80076469,8.24940789 3.76038464,8.21486842 3.72237989,8.17480263 C3.67487395,8.12875 3.61169105,8.06335526 3.61596659,7.82710526 C3.619292,7.70460526 3.7304559,7.48217105 3.72855566,7.35230263 C3.72855566,7.30625 3.71620412,7.28414474 3.69625162,7.27447368 L3.65729675,7.25421053 L3.67629913,7.21644737 C3.69624804,7.17984729 3.7065307,7.13902557 3.70622787,7.09763158 C3.69972782,7.00234561 3.66117937,6.91175368 3.59648915,6.83973684 L3.53330625,6.77157895 L3.62831813,6.76697368 C3.63795808,6.76672358 3.6475303,6.76533167 3.65682169,6.76282895 C3.65254616,6.73611842 3.57416136,6.65368421 3.56656041,6.57309211 C3.56516592,6.54847695 3.57680504,6.52486934 3.59743927,6.51046053 C3.60892597,6.49979908 3.61515168,6.48487859 3.61454141,6.46947368 C3.62261742,6.38151316 3.42879319,6.20467105 3.43354378,6.20881579 C3.21216611,6.09184211 2.9584844,5.85559211 2.9584844,5.85328947 L2.67344877,5.56868421 C2.67677419,5.71328947 2.6824749,5.97717105 2.6824749,6.21756579 C2.6824749,6.39348684 2.67914948,6.55651316 2.67059841,6.65506579 L2.67059841,6.66796053 L2.66204735,6.67809211 C2.619292,6.72736842 2.59838939,6.83282895 2.59933951,6.94934211 C2.60432951,7.12018678 2.62821928,7.29001892 2.67059841,7.45592105 L2.67344877,7.46559211 L2.55088345,8.04171053 L2.52903072,8.05046053 C2.47751031,8.06678977 2.44238724,8.11305143 2.44161979,8.16559211 C2.44161979,8.17157895 2.44161979,8.17572368 2.44161979,8.17940789 C2.44038891,8.23514857 2.47651088,8.28525257 2.53093096,8.30328947 L2.55800934,8.31434211 L2.55800934,10.4221711 L2.54708298,10.4350658 C2.48675043,10.4986184 2.4496958,10.5119737 2.44256991,10.5649342 C2.43544402,10.605 2.43069343,10.6317105 2.42546777,10.6501316 C2.42264657,10.6641128 2.41609479,10.677133 2.4064654,10.6878947 C2.40931575,10.7956579 2.41264117,11.0448026 2.41264117,11.5776316 C2.41264117,11.5776316 2.42214236,11.8539474 2.42831813,11.9681579 C2.43259906,11.9709889 2.43643869,11.9744009 2.43971955,11.9782895 C2.44640141,11.986017 2.44994824,11.9958408 2.4496958,12.0059211 C2.44161979,12.0561184 2.38366255,12.1440789 2.32000459,12.2665789 C2.29007585,12.32 2.26014711,12.3729605 2.23734426,12.4125658 C2.34170659,12.4009936 2.44465114,12.3795538 2.54470768,12.3485526 L2.81359129,12.1123026 L2.82879319,12.1123026 C3.02261742,12.1090789 3.26679794,11.7121053 3.43021837,11.5905263 C3.59553903,11.4592763 3.52047965,11.0051974 3.59221362,10.6344737 L3.59553903,10.6178947 L3.6064654,10.6105263 C3.6064654,10.6063816 3.61169105,10.5994737 3.61644165,10.5902632 C3.6240426,10.5713816 3.63496896,10.5442105 3.64589533,10.5133553 C3.66822312,10.4502632 3.69340127,10.3650658 3.71952953,10.2780263 C3.76194508,10.1413325 3.792612,10.0014687 3.81121599,9.85986842 C3.79941198,9.84097754 3.79225923,9.81970299 3.79031338,9.79769737 L3.7912635,9.79769737 Z M10.643045,11.5476974 L10.5717861,11.5205263 C10.5185083,11.497559 10.4609681,11.4853376 10.4026649,11.4846053 C10.378912,11.4846053 10.355159,11.4846053 10.3228549,11.4846053 L10.3000521,11.4846053 L10.291026,11.4735526 C10.2866241,11.4728224 10.2821262,11.4728224 10.2777243,11.4735526 C10.2159857,11.4799883 10.1563798,11.4991444 10.1029025,11.5297368 L10.0791495,11.5417105 L10.0582469,11.5269737 C10.0259428,11.5011842 9.82736801,11.4786184 9.60694046,11.4809211 C9.26442264,11.4809211 8.8321186,11.5196053 8.71620412,11.5656579 C8.55230863,11.7199342 8.50860317,11.7581579 8.44732051,11.7655263 C8.42940981,11.7648465 8.41243214,11.7576048 8.39981457,11.7452632 C8.39981457,11.7452632 8.39981457,11.7452632 8.39981457,11.7452632 C8.3257053,11.7236184 8.32142977,11.6678947 8.24066967,11.6181579 L8.2017148,11.5919079 L8.23116849,11.5569079 C8.56371005,11.1534868 8.37796184,11.2755263 8.75895946,11.0277632 C8.84827062,10.7643421 8.85872193,9.85572368 8.85682169,9.58125 L8.85682169,9.47625 L8.87629913,9.46381579 C8.98081219,9.38736842 8.97558654,9.38736842 8.97701172,9.36019737 C8.97701172,9.34085526 8.97321124,9.30723684 8.97226112,9.25796053 C8.98223737,9.17782895 8.86062217,9.11059211 8.85729675,8.89552632 C8.86062217,8.74585526 8.90907822,8.52710526 9.00931575,8.41980263 L8.96798559,3.64736842 L8.98508773,3.63493421 C9.01176372,3.61388255 9.03968108,3.59435392 9.06869818,3.57644737 L9.08580032,3.56677632 C9.08607403,3.56248217 9.08607403,3.55817573 9.08580032,3.55388158 C9.08912573,3.53546053 9.05539651,3.52947368 8.99078844,3.49263158 L8.97226112,3.47973684 L8.8216673,1.05046053 C8.79363879,0.944539474 8.69435138,0.909539474 8.57843689,0.876842105 C8.48342502,0.849210526 8.36275993,0.824342105 8.33378131,0.720263158 C8.22594283,0.720263158 8.18271243,0.712894737 8.14375756,0.674210526 C8.10597643,0.617566721 8.05667378,0.568988826 7.99886445,0.531447368 L7.96133476,0.505197368 L7.98936326,0.470197368 C8.0321186,0.416776316 8.08817561,0.348157895 8.10147727,0.325131579 L8.11810435,0.295657895 L8.15183357,0.304868421 C8.26822312,0.337105263 8.80076469,0.359671053 9.30337751,0.35875 C9.76418511,0.35875 10.2211922,0.338947368 10.3095533,0.305789474 L10.3437576,0.292434211 L10.3627599,0.324671053 C10.4053927,0.38658346 10.4530496,0.445102202 10.5052777,0.499671053 L10.515254,0.511184211 L10.515254,0.741447368 L10.48295,0.750197368 C10.2017148,0.823421053 9.89720174,1.07256579 9.90337751,1.28256579 C9.90717799,1.44835526 9.9257053,1.43684211 9.93758179,1.44651316 C9.97178606,1.45756579 10.026893,1.50868421 10.0183419,1.645 C10.0216977,1.72424407 9.98274884,1.79958472 9.915254,1.84440789 C9.86774806,1.88125 9.84779556,1.89046053 9.84589533,1.94710526 C9.84589533,2.30677632 9.89815186,3.27388158 9.89815186,4.09407895 C9.90411452,4.43043612 9.88824788,4.76682387 9.85064592,5.10125 C9.88960079,5.14039474 9.88817561,5.19611842 9.90195233,5.25414474 C9.90868119,5.31395668 9.92124736,5.37301504 9.93948203,5.43052632 C9.93978459,5.43311865 9.94095226,5.43554426 9.94280744,5.43743421 L9.9608597,5.44756579 L10.0240426,5.80171053 L10.0002896,5.81736842 C9.96084086,5.84058848 9.92473903,5.86877223 9.89292621,5.90118421 C9.82784307,5.96934211 9.80789058,6.07111842 9.80789058,6.17381579 C9.80789058,6.27651316 9.82879319,6.37921053 9.82974331,6.44184211 C9.8227755,6.48482331 9.81880766,6.52821136 9.81786682,6.57171053 C9.81989758,6.6688456 9.83263827,6.76549162 9.85587157,6.86 C9.86917324,6.93230263 9.85587157,7.08243421 9.87249865,7.16164474 C9.87128961,7.1734031 9.87525749,7.18510984 9.88342502,7.19388158 L9.90195233,7.20355263 L9.90480269,7.22381579 C9.91548733,7.29533614 9.92056916,7.36753823 9.92000459,7.43980263 C9.92029014,7.52322971 9.91521301,7.60659299 9.90480269,7.68940789 L9.90242739,7.70875 L9.88532526,7.71980263 C9.84597968,7.74373888 9.8096321,7.77202011 9.77701172,7.80407895 C9.69957704,7.88190789 9.67914948,7.93809211 9.67819936,8.00394737 C9.67534901,8.13657895 9.7888882,8.32078947 9.78983832,8.64868421 L9.78983832,8.69473684 C9.79933951,8.75782895 9.91192858,9.07421053 9.94755803,9.11473684 L9.96608535,9.12809211 L9.90385257,9.97638158 L9.88532526,9.98789474 C9.84557759,10.0089416 9.81015288,10.0368827 9.78081219,10.0703289 C9.74934271,10.1068302 9.73247933,10.1530936 9.73330625,10.2006579 C9.74348675,10.2872911 9.7624217,10.3727453 9.78983832,10.4557895 C9.8848502,10.8361842 9.85254616,10.6248026 10.5727362,11.1276974 L10.587463,11.1378289 L10.643045,11.5476974 Z M14.7247552,13.9811184 L13.1095533,13.9811184 L13.0967267,13.9590132 C13.0754139,13.9247458 13.052098,13.8916875 13.026893,13.86 L12.6468454,13.86 L12.6340188,13.8397368 C12.5656103,13.7356579 12.539007,13.7347368 12.5162041,13.7328947 C12.5010022,13.7328947 12.4786744,13.7379605 12.4473205,13.7388816 C12.3903134,13.7388816 12.3242801,13.71125 12.2463704,13.6182237 L11.1442326,13.6182237 C11.032556,13.6196717 10.9306507,13.556708 10.8848502,13.4579605 C10.6558716,13.4395395 9.21739176,13.4367763 8.45729675,13.4367763 L7.9561091,13.4367763 L7.94280744,13.4169737 C7.90242739,13.3345395 7.61501647,13.2511842 7.6064654,13.25625 L7.1865129,13.25625 C7.10290245,13.3096711 6.51572906,13.6799342 6.46632288,13.8319079 L6.45254616,13.8655263 L6.4169167,13.8595395 C6.19169193,13.824392 5.9642291,13.8043882 5.73615661,13.7996711 C5.58176231,13.7996711 5.43971955,13.8176316 5.38176231,13.8535526 L5.34233238,13.8775 L5.32000459,13.8388158 C5.29615543,13.7952969 5.26093475,13.7586128 5.21786682,13.7324342 L5.17891195,13.7052632 L5.20836564,13.6702632 C5.29055091,13.5680263 5.2824749,13.6269737 5.31477894,13.4782237 L5.31857941,13.4565789 L5.65634663,13.2825 C5.7888882,13.1563158 5.77036089,13.2106579 6.06347252,12.9527632 L6.06347252,12.4319079 L6.08294996,12.4199342 C6.1128787,12.4028947 6.18081219,12.3642105 6.17796184,12.3048026 C6.17796184,12.25875 6.14470768,12.2329605 6.08294996,12.18875 L6.06442264,12.1758553 L6.06442264,11.2548026 L6.08390008,11.2419079 C6.11723582,11.2192681 6.14897688,11.1944982 6.17891195,11.1677632 L6.17891195,10.7726316 L6.19743927,10.7601974 C6.30527775,10.68375 6.29720174,10.6901974 6.29720174,10.6680921 C6.29720174,10.6459868 6.29340127,10.6261842 6.29340127,10.5833553 C6.29340127,10.4382895 6.18366255,10.3530921 6.08199984,10.2853947 L6.06347252,10.2729605 L6.06014711,8.73664474 L6.08770055,8.72559211 C6.16513523,8.68967105 6.13758179,8.70348684 6.17748678,8.64131579 C6.15904037,8.50866802 6.14983504,8.37496606 6.14993333,8.24111842 C6.14874832,8.10243203 6.15859539,7.96386349 6.17938701,7.82664474 L6.18271243,7.80822368 L6.19838939,7.79809211 C6.23164217,7.77534545 6.26337625,7.75058102 6.29340127,7.72394737 L6.29340127,6.51414474 L6.31335376,6.50171053 C6.33995708,6.48789474 6.44542027,6.34559211 6.44161979,6.23782895 C6.44161979,6.23184211 6.44161979,6.22539474 6.44161979,6.21848684 C6.42711254,6.13280407 6.38185376,6.0548417 6.31382882,5.99835526 L6.29387632,5.98592105 L6.29387632,4.29118421 C6.26444986,4.26388232 6.23266282,4.23907657 6.19886445,4.21703947 L6.17938701,4.20460526 L6.17938701,3.28355263 L6.19791433,3.27111842 C6.28770055,3.20986842 6.32665542,3.15184211 6.41121599,3.07493421 C6.4169167,3.01092105 6.43544402,2.77328947 6.43544402,2.56098684 C6.4381331,2.46400222 6.43113293,2.36699295 6.41454141,2.27131579 C6.38331782,2.24296827 6.3497977,2.21709574 6.31430388,2.19394737 L6.27487395,2.16723684 L6.30432763,2.13131579 C6.35515898,2.07328947 6.50052716,1.70302632 6.49435138,1.59618421 L6.49435138,1.58743421 C6.46774806,1.27657895 6.29862692,0.970789474 6.2953015,0.965263158 C6.29007585,0.923815789 6.1561091,0.896184211 6.06537276,0.900328947 L6.01786682,0.900328947 L6.0088407,0.917828947 L5.96846065,0.896184211 C5.83354378,0.798092105 6.01264117,0.731776316 5.38793808,0.289671053 L5.35040839,0.2625 L5.37938701,0.2275 C5.46157229,0.126184211 5.45349628,0.184210526 5.48532526,0.035 L5.49245115,0 L5.69862692,0 L5.71192858,0.0216447368 C5.73237291,0.0563376959 5.755562,0.089441341 5.78128725,0.120657895 L6.70670293,0.120657895 L6.71952953,0.140921053 C6.85159604,0.347236842 6.93235613,0.371184211 6.98556279,0.371184211 C7.02356754,0.371184211 7.05777181,0.353684211 7.10860317,0.351842105 C7.13373753,0.352789494 7.15782076,0.36186868 7.17701172,0.377631579 C7.17701172,0.377631579 7.53710673,0.810065789 7.68722549,0.912763158 L7.70575281,0.925197368 L7.70575281,2.05901316 L7.68675043,2.07282895 C7.60361504,2.13407895 7.59458891,2.13592105 7.59173856,2.21881579 L7.59173856,2.22572368 L7.59173856,2.22848684 C7.59173856,2.23585526 7.6017148,2.31368421 7.80456516,2.45598684 L7.82261742,2.46842105 L7.82261742,2.99664474 L7.80313998,3.01046053 C7.76945855,3.03231059 7.73768151,3.0568005 7.70812811,3.08368421 L7.70812811,5.46138158 C7.81216611,5.54980263 7.87107347,5.55348684 7.93330625,5.67276316 C7.98793808,5.78421053 7.99838939,6.07434211 8.00028963,6.43631579 C8.00028963,7.15427632 7.93853191,8.10986842 7.93853191,8.10986842 L7.93853191,8.13105263 L7.92047965,8.14348684 C7.88693085,8.16568164 7.85516893,8.19031384 7.82546777,8.21717105 L7.82546777,9.02401316 C7.86014711,9.05256579 7.89007585,9.07743421 7.92047965,9.09861842 L7.93568155,9.10828947 L7.93900697,9.12625 C7.94752191,9.19978381 7.95101329,9.27378286 7.94945827,9.34776316 C7.94945827,9.53657895 7.93948203,9.76914474 7.93948203,9.77052632 L7.93948203,9.80506579 L7.90385257,9.81059211 C7.76133476,9.83223684 7.77416136,9.9225 7.71382882,10.0947368 C7.80076469,10.2149342 7.82546777,10.1946711 7.82356754,10.3065789 L7.82356754,10.3429605 C7.83259366,10.4783553 7.79981457,10.4967763 7.70907822,10.5732237 L7.70907822,11.0899342 L7.68960079,11.1032895 C7.65616557,11.1254646 7.62441353,11.1499353 7.59458891,11.1765132 L7.59458891,11.9354605 L7.5760616,11.9488158 C7.50195233,12.0013158 7.50480269,12.0229605 7.47724925,12.1072368 C7.47275126,12.1192615 7.46987705,12.1317998 7.46869818,12.1445395 C7.4368692,12.1514474 7.58793808,12.1523684 7.59458891,12.4747368 C7.80599034,12.4788816 7.96323499,12.5042105 8.1584844,12.5042105 C8.27379051,12.5038868 8.38891279,12.4952666 8.50290245,12.4784211 C8.59791433,12.3351974 8.64542027,12.3195395 8.83544402,12.2021053 C8.85276593,12.1983791 8.87043432,12.1963732 8.88817561,12.1961184 C9.0848502,12.1993421 9.43781932,12.3697368 9.82831813,12.3683553 C10.026464,12.3720017 10.2214701,12.3200236 10.3898383,12.2186842 C10.4145414,12.1491447 10.4848502,12.1459211 10.5798621,12.1219737 C10.722689,12.0980142 10.8669069,12.082634 11.0116911,12.0759211 C11.3665604,12.0538158 11.8416198,12.0459868 12.3242801,12.0459868 C13.3508835,12.0459868 14.4121661,12.0809868 14.4145414,12.0809868 L14.4572968,12.0809868 L14.4572968,13.5086184 C14.4606222,13.5155263 14.4658478,13.5265789 14.4710735,13.5394737 C14.483425,13.5661842 14.5019523,13.6021053 14.52333,13.6435526 C14.5700301,13.7350686 14.6220537,13.8239397 14.6791495,13.9097368 L14.7247552,13.9811184 Z" id="Shape"></path>
                </g>
            </g>
        </g>
    </g>
</svg>
